<svg xmlns="http://www.w3.org/2000/svg" width="147" height="147" viewBox="0 0 147 147"><defs><style>.a{fill:#f1b71c;}.b{fill:#fff;}.c{fill:#039cd8;}</style></defs><g transform="translate(0 0)"><circle class="a" cx="73.5" cy="73.5" r="73.5"/><circle class="b" cx="64.251" cy="64.251" r="64.251" transform="translate(9.249 9.249)"/><path class="a" d="M160,146.532c-3.993,3.958-10.626,5.91-16.755-.3h0l-8.161-8.265a1.1,1.1,0,0,0-.5-.314h-.145a1,1,0,0,0-.12,0h-.03a1.088,1.088,0,0,0-.5.314l-8.171,8.265-4.3-4.547.349-.354,8.415-8.884c1.542-1.5,2.94-2.236,4.332-2.181,1.388-.055,2.79.659,4.332,2.181l8.415,8.889.674.679a4.818,4.818,0,0,0,7.307.09c1.927-1.9,2.411-4.637-.075-7.152l-13.621-13.8,4.637-4.582,13.431,13.606C165.417,136.135,164.244,142.339,160,146.532Z" transform="translate(-60.767 -58.388)"/><path class="c" d="M105.21,141.656l4.3,4.547h0a15.233,15.233,0,0,1-3.2,2.5c-5.166,3.01-10.242,1.093-13.586-2.181-4.247-4.193-5.415-10.4.5-16.371l13.426-13.606,4.642,4.582-13.626,13.8c-2.5,2.5-2,5.251-.07,7.152a5.031,5.031,0,0,0,4.492,1.557,5.56,5.56,0,0,0,2.835-1.647Z" transform="translate(-44.657 -58.373)"/><path class="c" d="M62.894,187.28c1.682,2.436.893,4.517-.839,5.71a3.9,3.9,0,0,1-5.795-1.133l-2.321-3.369a.289.289,0,0,0-.459-.085l-3.908,2.7-1.3-1.892,4.277-2.95a1.778,1.778,0,0,1,2.885.5l2.685,3.893a1.7,1.7,0,0,0,2.531.5,1.652,1.652,0,0,0,.414-2.5l-3.883-5.625,1.892-1.3Z" transform="translate(-24.178 -91.025)"/><path class="c" d="M86.383,210.231l-1.417,1.8-5.171-4.078c-1.083-.854-1.957-.724-2.585.07s-.429,1.642.609,2.466l5.076,3.993L81.6,216.121l-5.121-4.033c-1.043-.819-1.9-.829-2.565,0s-.5,1.7.534,2.531l5.226,4.123-1.427,1.807-5.221-4.128c-2.446-1.932-2.5-3.923-1.218-5.525a3,3,0,0,1,3.349-1.2,2.987,2.987,0,0,1,.384-3.494c1.3-1.647,3.244-2,5.67-.085Z" transform="translate(-35.553 -102.591)"/><path class="c" d="M112.6,221.173l-.878,2.121-3.544-1.462-4.138,10.017-2.141-.883,4.138-10.017-3.544-1.467.878-2.121Z" transform="translate(-51.04 -108.872)"/><path class="c" d="M129.3,223.257l-.344,1.657-.25-.05c-.5-.11-.774.095-.893.664l-.7,3.314-2.191-.459.649-3.085c.379-1.812,1.348-2.541,3.045-2.186Z" transform="translate(-62.57 -111.71)"/><path class="c" d="M145.73,227.729l-.04,2.3-6.738-.11c-1.188,0-1.722.619-1.737,1.532,0,.8.379,1.562,1.922,1.587l3.075.05c3.579.06,4.387,2.056,4.357,3.943-.035,2.221-1.253,3.838-4.247,3.788L135,240.7l.04-2.3,7.4.115c1.243,0,1.822-.649,1.837-1.607,0-.853-.424-1.642-2.036-1.667l-3.06-.05c-3.494-.055-4.287-2.031-4.257-3.863.035-2.181,1.228-3.758,4.148-3.713Z" transform="translate(-67.578 -114.01)"/><path class="c" d="M174.162,220.66l.674,2.2-4.856,1.5c-2.421.739-3.109,2.276-2.226,5.161s2.291,3.758,4.732,2.995l4.856-1.5.674,2.2-4.856,1.5c-3.669,1.123-6.314-.324-7.6-4.532s.1-6.913,3.748-8.031Z" transform="translate(-82.689 -110.525)"/><path class="c" d="M193.347,200.43l1,1.413-7.277,5.181-1-1.413Zm2.251,19.036-2.076,1.467-2.995-12.188a2.617,2.617,0,0,1,1.273-2.995,2.522,2.522,0,0,1,3.2-.2l10.387,6.943-2.076,1.5-9.383-6.284a.629.629,0,0,0-.784,0,.669.669,0,0,0-.279.749Z" transform="translate(-93.199 -100.392)"/><path class="c" d="M216.634,187.2c2.226-3.1,5.231-3.559,8.824-1s4.093,5.52,1.862,8.635l-1.043,1.457c-2.231,3.119-5.2,3.579-8.774,1s-4.128-5.565-1.907-8.665Zm.829,2.79c-1.5,2.061-1.078,3.708,1.378,5.465s4.083,1.587,5.57-.5l1.043-1.452c1.472-2.061,1.093-3.674-1.358-5.43s-4.118-1.6-5.59.454Z" transform="translate(-107.327 -92.435)"/><circle class="c" cx="10.342" cy="10.342" r="10.342" transform="translate(63.353 22.091)"/><circle class="c" cx="10.342" cy="10.342" r="10.342" transform="translate(32.173 41.507)"/><circle class="c" cx="10.342" cy="10.342" r="10.342" transform="translate(94.528 41.507)"/></g></svg>